<?xml version="1.0" encoding="UTF-8"?>
<svg id="Layer_1" data-name="Layer 1" xmlns="http://www.w3.org/2000/svg" version="1.1" viewBox="0 0 200 200">
  <defs>
    <style>
      .cls-1 {
        fill: #009dda;
        stroke-width: 0px;
      }
    </style>
  </defs>
  <path class="cls-1" d="M71.2,1.6c-2.1,1.4-2.2,2.3-2.2,12.8s.9,14.6,6.2,14.6,5.8-2.6,5.8-14.8-.2-11.2-2.2-12.6C77.6.7,75.9,0,75,0s-2.6.7-3.8,1.6Z"/>
  <path class="cls-1" d="M113.3,2.9c-4.2,3-7.3,9-7.3,13.9.1,4.3,3.5,10.7,7.2,13.6,1.9,1.4,4,2.6,4.6,2.6.9,0,1.2-4.7,1.2-16.5S118.6,0,118.2,0s-2.7,1.3-4.9,2.9Z"/>
  <path class="cls-1" d="M127,16.5c0,9.1.4,16.5.9,16.5,1.9,0,7.6-4.8,9.5-7.9,4.1-7.1,1.6-18-5.3-22.7C130.2,1.1,128.2,0,127.8,0s-.8,7.4-.8,16.5Z"/>
  <path class="cls-1" d="M39.2,13.1c-2.7,1-4.6,5.3-3.3,7.7.5.9,4.3,5,8.4,9.1,5.5,5.3,8.2,7.3,10.1,7.3,3.6,0,5.6-1.9,5.6-5.6s-1.3-4.4-7.7-10.7c-8.5-8.3-9.7-9-13.1-7.8Z"/>
  <path class="cls-1" d="M107.3,43.4c-22.1,5.4-38.3,25-38.3,46.4s3,10.2,7.8,10.2,7.2-2.7,8.7-10.6c1.8-9.3,3.5-13.3,8.1-18.4,3.5-3.8,11-8.7,12-7.7s-3.2,17.4-7.6,38.2-8,38.8-8,40c0,3.3,2,4.5,7.2,4.5h4.8v23.5c0,24.8.4,27.5,4.7,29.4,3.6,1.7,5.9,1.3,9-1.3l2.8-2.4.3-76.6.2-76.6h-3.2c-1.8.1-5.7.7-8.5,1.4Z"/>
  <path class="cls-1" d="M127,118.1v76.1l2.9,2.9c3.6,3.6,7,3.7,10.8.5l2.8-2.4.5-66.4.5-66.3,4.8,4.5c6.4,5.8,9.8,12.7,10.8,21.5.6,5.7,1.2,7.3,3.4,9.2,2.9,2.5,5.2,2.9,8.8,1.2,3.9-1.7,5.1-5,4.4-11.9-1.5-17-13-33.2-28.3-40.1s-15-4.9-18.6-4.9h-2.8v76.1Z"/>
  <path class="cls-1" d="M24.7,47.8c-2.2,2.4-2.1,6.5.1,8.5,2.8,2.6,23.2,2.5,25.5-.1,2.2-2.4,2.1-6.5-.1-8.5-2.8-2.6-23.2-2.5-25.5.1Z"/>
</svg>