<?xml version="1.0" encoding="UTF-8"?>
<svg id="Layer_1" data-name="Layer 1" xmlns="http://www.w3.org/2000/svg" version="1.1" viewBox="0 0 512 512">
  <defs>
    <style>
      .cls-1 {
        fill: #418fde;
        stroke-width: 0px;
      }
    </style>
  </defs>
  <path class="cls-1" d="M205.5,1.1C139.3,8,80.5,49.3,50.9,109.5c-29.1,59.5-25.7,130.7,8.9,187,6.8,10.9,19.3,27.2,26.1,34l5.1,4.9v82.4c0,80.5,0,82.4,2,86.2,1.3,2.6,3.4,4.7,6,6,3.8,2,5.7,2,82,2s78.2,0,82-2c2.6-1.3,4.7-3.4,6-6s2-5.8,2-28.8v-25l29.8-.5c38.9-.7,49.3-2.3,66.1-10.4,15.7-7.5,26.9-20.7,32.7-38.3.9-3,5.4-20.1,9.9-38l8.1-32.5,26.5-.5c23.7-.4,26.7-.7,29.6-2.4,3.8-2.3,7.3-8.3,7.3-12.5s1.1-1.9-32.1-62.7l-27.9-51v-8c0-9.6-2.3-29.2-4.5-39.4-11.8-52.9-43.7-97.4-90.7-126.3C291.8,6.7,246.9-3.2,205.5,1.1ZM256.5,32.9c52.2,10.5,93.1,41.8,117.4,89.7,10.5,20.7,15.7,42.6,17,70.6l.8,17.3,23.6,43.1c13,23.7,23.9,43.8,24.2,44.7.6,1.4-1.4,1.6-18.8,1.9-21.3.3-22.2.6-27,6.9-1.1,1.6-5.9,18.7-12.1,43.6-5.7,22.6-11.5,43.5-12.9,46.4-6.1,13.2-17.5,19.3-40.9,21.8-12.4,1.4-72.8,1.4-79.9.1-19.3-3.7-33.6-19.1-36.1-38.8-1.4-10.6-3.8-15.6-8.7-18.2-2.2-1.1-5.4-2-7.1-2-5.1,0-10.7,3.5-13.1,8.2-1.9,3.7-2.1,5.3-1.5,12.3,1.4,18,8.1,32.8,21,46.4,8.2,8.6,18.8,15.3,29.7,18.8l8.9,2.8v33.5h-120v-77.4c0-52.5-.3-78.4-1.1-80.3-.6-1.5-4.7-6.6-9.3-11.3-25.8-26.7-40.7-55.4-47.2-91-2.4-13.1-2.4-40.9,0-54,8.6-47.2,34.3-86.2,73.4-111.6,20.2-13.1,45.4-22.4,69.3-25.4,11.8-1.4,38.8-.4,50.4,1.9Z"/>
  <path class="cls-1" d="M158.5,106.6c-3.8.8-11.2,3.5-16.3,6-20.7,10-34.1,30.4-35.9,54.5-1.3,19.2,5.2,35.9,20.7,53.2,2.9,3.2,15,14,26.9,24.1,31.3,26.5,43.3,39,56,58.3,11,16.7,21.2,16.7,32.2,0,12.7-19.3,24.7-31.8,56-58.3,28.4-24,35.9-32.5,42.7-47.9,10.5-23.9,4.6-53.1-14.5-72.2s-43.3-23.2-67.8-16.7c-8.3,2.1-21,8.4-27.3,13.4l-5.2,4.2-5.2-4.2c-6.3-5-19-11.2-27.3-13.5-8.9-2.3-26.4-2.8-35-.9ZM184.3,136.5c9.8,2.1,17.9,7,27,16.4,5.8,6,8.6,8.2,11.2,8.7,6.9,1.3,10-.2,17.7-8.2,4-4.1,9.3-8.8,11.8-10.4,13.3-8.6,31.9-10.1,44.4-3.8,18.6,9.5,25.1,34,13.6,51.6-4.9,7.7-12,14.6-33.4,32.5-21.4,18-35.8,31.8-44.1,42.1-3.3,4.1-6.2,7.5-6.5,7.5s-3.2-3.4-6.5-7.5c-8.3-10.3-22.7-24.1-44.1-42.1-21.4-17.9-28.5-24.8-33.4-32.5-13.5-20.7-2.5-48.5,21.5-54.4,6.8-1.7,12.7-1.6,20.8.1Z"/>
</svg>
