<?xml version="1.0" standalone="no"?>
<!DOCTYPE svg PUBLIC "-//W3C//DTD SVG 20010904//EN"
 "http://www.w3.org/TR/2001/REC-SVG-20010904/DTD/svg10.dtd">
<svg version="1.0" xmlns="http://www.w3.org/2000/svg"
 width="512.000000pt" height="512.000000pt" viewBox="0 0 512.000000 512.000000"
 preserveAspectRatio="xMidYMid meet">

<g transform="translate(0.000000,512.000000) scale(0.100000,-0.100000)"
fill="#000000" stroke="none">
<path d="M2055 5109 c-662 -69 -1250 -482 -1546 -1084 -291 -595 -257 -1307
89 -1870 68 -109 193 -272 261 -340 l51 -49 0 -824 c0 -805 0 -824 20 -862 13
-26 34 -47 60 -60 38 -20 57 -20 820 -20 763 0 782 0 820 20 26 13 47 34 60
60 18 36 20 58 20 288 l0 250 298 5 c389 7 493 23 661 104 157 75 269 207 327
383 9 30 54 201 99 380 l81 325 265 5 c237 4 267 7 296 24 38 23 73 83 73 125
0 40 11 19 -321 627 l-279 510 0 80 c0 96 -23 292 -45 394 -118 529 -437 974
-907 1263 -340 210 -789 309 -1203 266z m510 -318 c522 -105 931 -418 1174
-897 105 -207 157 -426 170 -706 l8 -173 236 -431 c130 -237 239 -438 242
-447 6 -14 -14 -16 -188 -19 -213 -3 -222 -6 -270 -69 -11 -16 -59 -187 -121
-436 -57 -226 -115 -435 -129 -464 -61 -132 -175 -193 -409 -218 -124 -14
-728 -14 -799 -1 -193 37 -336 191 -361 388 -14 106 -38 156 -87 182 -22 11
-54 20 -71 20 -51 0 -107 -35 -131 -82 -19 -37 -21 -53 -15 -123 14 -180 81
-328 210 -464 82 -86 188 -153 297 -188 l89 -28 0 -167 0 -168 -600 0 -600 0
0 774 c0 525 -3 784 -11 803 -6 15 -47 66 -93 113 -258 267 -407 554 -472 910
-24 131 -24 409 0 540 86 472 343 862 734 1116 202 131 454 224 693 254 118
14 388 4 504 -19z"/>
<path d="M1585 4054 c-38 -8 -112 -35 -163 -60 -207 -100 -341 -304 -359 -545
-13 -192 52 -359 207 -532 29 -32 150 -140 269 -241 313 -265 433 -390 560
-583 110 -167 212 -167 322 0 127 193 247 318 560 583 284 240 359 325 427
479 105 239 46 531 -145 722 -166 166 -433 232 -678 167 -83 -21 -210 -84
-273 -134 l-52 -42 -52 42 c-63 50 -190 112 -273 135 -89 23 -264 28 -350 9z
m258 -299 c98 -21 179 -70 270 -164 58 -60 86 -82 112 -87 69 -13 100 2 177
82 40 41 93 88 118 104 133 86 319 101 444 38 186 -95 251 -340 136 -516 -49
-77 -120 -146 -334 -325 -214 -180 -358 -318 -441 -421 -33 -41 -62 -75 -65
-75 -3 0 -32 34 -65 75 -83 103 -227 241 -441 421 -214 179 -285 248 -334 325
-135 207 -25 485 215 544 68 17 127 16 208 -1z"/>
</g>
</svg>
